<svg width="340" height="340" xmlns="http://www.w3.org/2000/svg" xmlns:xlink="http://www.w3.org/1999/xlink" xml:space="preserve" overflow="hidden"><g transform="translate(-470 -190)"><path d="M742 415.25C726.417 402.5 706.583 394 686.75 388.333 672.583 384.083 657 381.25 640 381.25 624.417 381.25 608.833 384.083 593.25 388.333 573.417 394 553.583 403.917 538 415.25 530.917 420.917 526.667 429.417 526.667 437.917L526.667 494.583 753.333 494.583 753.333 437.917C753.333 429.417 749.083 420.917 742 415.25Z" fill="#0B76A0"/><path d="M584.75 262.25C586.875 262.25 588.646 261.542 589.708 260.125L589.708 260.125C602.812 247.375 620.521 239.583 640 239.583 678.958 239.583 710.833 271.458 710.833 310.417L710.833 326.708 670.104 340.167C668.333 339.458 666.562 338.75 664.792 338.75 658.771 338.75 654.167 343.354 654.167 349.375 654.167 355.396 658.771 360 664.792 360 669.042 360 672.938 357.521 674.708 353.625L731.021 334.854C733.854 333.792 735.979 331.312 735.979 328.125L735.979 296.25C735.979 292.354 732.792 289.167 728.896 289.167L722.521 289.167C712.958 252.688 679.667 225.417 640 225.417 616.979 225.417 596.083 234.625 580.5 249.5 578.729 250.917 577.667 252.688 577.667 255.167 577.667 259.062 580.854 262.25 584.75 262.25Z" fill="#0B76A0"/><path d="M696.312 316.438C696.667 314.312 696.667 312.542 696.667 310.417 696.667 279.25 671.167 253.75 640 253.75 608.833 253.75 583.333 279.25 583.333 310.417 583.333 341.583 608.833 367.083 640 367.083 641.062 367.083 642.479 367.083 643.542 366.729L643.542 349.375 643.542 349.375C643.542 346.188 644.25 343 645.667 339.812 648.146 334.854 652.396 330.958 658.062 329.188L696.312 316.438Z" fill="#0B76A0"/></g></svg>